<?xml version="1.0" encoding="UTF-8" standalone="no"?>
<svg width="100" height="100" viewBox="0 0 100 100" xmlns="http://www.w3.org/2000/svg">
  <style>
    .backpack-main {
      fill: #3D5B43; /* Military green */
      stroke: #243425;
      stroke-width: 1.5;
    }
    .backpack-pocket {
      fill: #324736; /* Darker green for pockets */
      stroke: #243425;
      stroke-width: 1;
    }
    .backpack-strap {
      fill: #3D5B43;
      stroke: #243425;
      stroke-width: 1;
    }
    .backpack-buckle {
      fill: #AAA;
      stroke: #888;
      stroke-width: 0.5;
    }
    .backpack-zipper {
      fill: #777;
      stroke: #555;
      stroke-width: 0.5;
    }
    .deadside-accent {
      fill: #50C878; /* Emerald accent */
      opacity: 0.8;
    }
    .backpack-patch {
      fill: #222;
      stroke: #000;
      stroke-width: 0.5;
    }
  </style>
  
  <!-- Background glow for Deadside theme -->
  <circle cx="50" cy="50" r="47" fill="#2F4F4F" opacity="0.2" />
  
  <!-- Main backpack body -->
  <path d="M 30,25 C 25,25 20,30 20,35 L 20,75 C 20,80 25,85 30,85 L 70,85 C 75,85 80,80 80,75 L 80,35 C 80,30 75,25 70,25 Z" class="backpack-main" />
  
  <!-- Top flap -->
  <path d="M 30,25 L 35,15 C 35,15 45,10 55,10 C 65,10 70,15 70,25" class="backpack-main" />
  
  <!-- Main compartment zipper -->
  <path d="M 30,25 C 40,30 60,30 70,25" class="backpack-zipper" fill="none" />
  <circle cx="50" cy="25" r="2" class="backpack-buckle" />
  
  <!-- Front pocket -->
  <rect x="25" y="55" width="50" height="25" rx="3" ry="3" class="backpack-pocket" />
  
  <!-- Front pocket zipper -->
  <path d="M 25,55 C 35,58 65,58 75,55" class="backpack-zipper" fill="none" />
  <circle cx="50" cy="55" r="1.5" class="backpack-buckle" />
  
  <!-- Side pockets -->
  <rect x="20" y="50" width="10" height="20" rx="2" ry="2" class="backpack-pocket" />
  <rect x="70" y="50" width="10" height="20" rx="2" ry="2" class="backpack-pocket" />
  
  <!-- Bottom reinforcement -->
  <path d="M 20,75 C 20,80 25,85 30,85 L 70,85 C 75,85 80,80 80,75" fill="#243425" opacity="0.5" />
  
  <!-- Straps -->
  <path d="M 35,25 C 35,25 30,35 30,45 L 30,65" class="backpack-strap" />
  <path d="M 65,25 C 65,25 70,35 70,45 L 70,65" class="backpack-strap" />
  
  <!-- Strap buckles -->
  <rect x="27" y="40" width="6" height="3" rx="1" ry="1" class="backpack-buckle" />
  <rect x="67" y="40" width="6" height="3" rx="1" ry="1" class="backpack-buckle" />
  
  <!-- MOLLE webbing details -->
  <path d="M 35,65 L 45,65 M 35,70 L 45,70 M 35,75 L 45,75" stroke="#243425" stroke-width="1" fill="none" />
  <path d="M 55,65 L 65,65 M 55,70 L 65,70 M 55,75 L 65,75" stroke="#243425" stroke-width="1" fill="none" />
  
  <!-- Tactical patch -->
  <rect x="40" y="40" width="20" height="10" rx="2" ry="2" class="backpack-patch" />
  
  <!-- Deadside-themed emerald accent -->
  <path d="M 45,43 L 50,47 L 55,43 L 55,47 L 50,50 L 45,47 Z" class="deadside-accent" />
  
  <!-- Wear and tear details -->
  <path d="M 25,35 L 30,33 M 70,60 L 75,58 M 40,83 L 45,80" stroke="#243425" stroke-width="0.7" fill="none" opacity="0.7" />
</svg>