<?xml version="1.0" encoding="UTF-8" standalone="no"?>
<svg width="100" height="100" viewBox="0 0 100 100" xmlns="http://www.w3.org/2000/svg">
  <style>
    .medkit-base {
      fill: #D22;
      stroke: #900;
      stroke-width: 2;
    }
    .medkit-cross {
      fill: white;
      stroke: #EEE;
      stroke-width: 0.5;
    }
    .medkit-handle {
      fill: #444;
      stroke: #222;
      stroke-width: 1;
    }
    .medkit-latch {
      fill: #CCC;
      stroke: #999;
      stroke-width: 0.5;
    }
    .deadside-accent {
      fill: #50C878; /* Emerald accent */
      stroke: #408860;
      stroke-width: 0.5;
    }
  </style>
  
  <!-- Background glow for Deadside theme -->
  <circle cx="50" cy="50" r="47" fill="#2F4F4F" opacity="0.2" />
  
  <!-- Main medkit body -->
  <rect x="15" y="30" width="70" height="50" rx="5" ry="5" class="medkit-base" />
  
  <!-- Medical cross -->
  <rect x="35" y="40" width="30" height="10" class="medkit-cross" />
  <rect x="45" y="30" width="10" height="30" class="medkit-cross" />
  
  <!-- Top of the medkit -->
  <path d="M 15,30 C 15,20 15,20 25,20 L 75,20 C 85,20 85,20 85,30" class="medkit-base" />
  
  <!-- Handle -->
  <path d="M 30,20 C 30,15 30,15 40,15 L 60,15 C 70,15 70,15 70,20" class="medkit-handle" />
  
  <!-- Latches -->
  <rect x="25" y="25" width="10" height="5" rx="1" ry="1" class="medkit-latch" />
  <rect x="65" y="25" width="10" height="5" rx="1" ry="1" class="medkit-latch" />
  
  <!-- Side details -->
  <rect x="12" y="45" width="3" height="20" rx="1" ry="1" class="medkit-latch" opacity="0.7" />
  <rect x="85" y="45" width="3" height="20" rx="1" ry="1" class="medkit-latch" opacity="0.7" />
  
  <!-- Deadside-themed emerald accent -->
  <circle cx="50" cy="70" r="5" class="deadside-accent" opacity="0.8" />
  <path d="M 47,67 L 53,73 M 47,73 L 53,67" stroke="#50C878" stroke-width="1" fill="none" />
  
  <!-- Scratches/battle damage for Deadside theme -->
  <path d="M 25,35 L 30,32 M 70,40 L 75,37 M 60,75 L 65,78" stroke="#900" stroke-width="0.7" fill="none" opacity="0.7" />
</svg>