<?xml version="1.0" encoding="UTF-8" standalone="no"?>
<svg width="100" height="100" viewBox="0 0 100 100" xmlns="http://www.w3.org/2000/svg">
  <style>
    .pistol-metal {
      fill: #444;
      stroke: #222;
      stroke-width: 1;
    }
    .pistol-handle {
      fill: #8B4513; /* Wooden handle */
      stroke: #5A2A0D;
      stroke-width: 0.7;
    }
    .pistol-detail {
      fill: #333;
    }
    .highlight {
      fill: #888;
      opacity: 0.6;
    }
    .deadside-accent {
      fill: #50C878; /* Emerald accent */
      opacity: 0.8;
    }
  </style>
  
  <!-- Background glow for Deadside theme -->
  <circle cx="50" cy="50" r="47" fill="#2F4F4F" opacity="0.2" />
  
  <!-- Pistol - positioned horizontally -->
  <g transform="translate(50, 50) rotate(0)">
    <!-- Barrel -->
    <rect x="15" y="-6" width="35" height="12" rx="2" ry="2" class="pistol-metal" />
    
    <!-- Slide -->
    <rect x="-5" y="-9" width="30" height="18" rx="2" ry="2" class="pistol-metal" />
    <rect x="-5" y="-6" width="25" height="12" rx="1" ry="1" fill="#333" />
    
    <!-- Trigger guard -->
    <path d="M -5,6 L -5,12 A 8 8 0 0 0 -13,20 L -21,20 A 2 2 0 0 1 -23,18 L -23,0 A 2 2 0 0 1 -21,-2 L -13,-2 A 8 8 0 0 0 -5,6 Z" class="pistol-metal" />
    
    <!-- Trigger -->
    <rect x="-14" y="6" width="2" height="10" rx="1" ry="1" fill="#222" />
    
    <!-- Handle/Grip -->
    <path d="M -24,0 L -24,18 A 4 4 0 0 1 -28,22 L -28,38 A 3 3 0 0 0 -25,41 L -15,41 A 3 3 0 0 0 -12,38 L -12,22 A 4 4 0 0 1 -16,18 L -16,0 Z" class="pistol-handle" />
    
    <!-- Handle texture/grip pattern -->
    <path d="M -26,24 L -14,24 M -26,28 L -14,28 M -26,32 L -14,32 M -26,36 L -14,36" stroke="#5A2A0D" stroke-width="0.5" fill="none" />
    
    <!-- Front sight -->
    <rect x="45" y="-4" width="2" height="8" rx="1" ry="1" class="pistol-detail" />
    
    <!-- Rear sight -->
    <rect x="2" y="-9" width="6" height="2" rx="1" ry="1" class="pistol-detail" />
    
    <!-- Ejection port -->
    <rect x="5" y="-7" width="10" height="4" rx="1" ry="1" class="pistol-detail" opacity="0.7" />
    
    <!-- Deadside-themed emerald highlight (small gem/light on the side) -->
    <circle cx="10" cy="-6" r="2" class="deadside-accent" />
    
    <!-- Metal highlights -->
    <path d="M 20,-4 L 40,-4" stroke="#888" stroke-width="1" opacity="0.6" fill="none" />
    <ellipse cx="43" cy="-2" rx="3" ry="2" class="highlight" opacity="0.4" />
  </g>
</svg>