<?xml version="1.0" encoding="UTF-8" standalone="no"?>
<svg width="100" height="150" viewBox="0 0 100 150" xmlns="http://www.w3.org/2000/svg" xmlns:xlink="http://www.w3.org/1999/xlink">
  <defs>
    <!-- Card textures and gradients -->
    <linearGradient id="cardGradient" x1="0%" y1="0%" x2="100%" y2="100%">
      <stop offset="0%" stop-color="#FFFFFF" />
      <stop offset="3%" stop-color="#F8F8F8" />
      <stop offset="10%" stop-color="#FFFFFF" />
      <stop offset="25%" stop-color="#F0F0F0" />
      <stop offset="40%" stop-color="#FFFFFF" />
      <stop offset="65%" stop-color="#F5F5F5" />
      <stop offset="85%" stop-color="#FFFFFF" />
      <stop offset="100%" stop-color="#F8F8F8" />
    </linearGradient>
    
    <linearGradient id="borderGradient" x1="0%" y1="0%" x2="100%" y2="100%">
      <stop offset="0%" stop-color="#60D888" />
      <stop offset="50%" stop-color="#50C878" />
      <stop offset="100%" stop-color="#40B868" />
    </linearGradient>
    
    <radialGradient id="cornerGradient" cx="0.5" cy="0.5" r="0.5" fx="0.3" fy="0.3">
      <stop offset="0%" stop-color="#FFFFFF" />
      <stop offset="70%" stop-color="#F8F8F8" />
      <stop offset="100%" stop-color="#F0F0F0" />
    </radialGradient>
    
    <linearGradient id="spadeGradient" x1="0%" y1="0%" x2="100%" y2="100%">
      <stop offset="0%" stop-color="#333333" />
      <stop offset="30%" stop-color="#202020" />
      <stop offset="70%" stop-color="#252525" />
      <stop offset="100%" stop-color="#151515" />
    </linearGradient>
    
    <filter id="cardShadow" x="-10%" y="-10%" width="120%" height="120%">
      <feDropShadow dx="0" dy="1" stdDeviation="1" flood-color="black" flood-opacity="0.3"/>
    </filter>
    
    <filter id="textShadow" x="-20%" y="-20%" width="140%" height="140%">
      <feDropShadow dx="0.5" dy="0.5" stdDeviation="0.5" flood-color="black" flood-opacity="0.2"/>
    </filter>
    
    <filter id="innerShadow" x="-20%" y="-20%" width="140%" height="140%">
      <feGaussianBlur in="SourceAlpha" stdDeviation="3" result="blur"/>
      <feOffset in="blur" dx="0" dy="1" result="offsetBlur"/>
      <feComposite in="offsetBlur" in2="SourceAlpha" operator="arithmetic" k2="-1" k3="1" result="innerShadow"/>
      <feComposite in="SourceGraphic" in2="innerShadow" operator="over"/>
    </filter>
    
    <filter id="emboss" x="-20%" y="-20%" width="140%" height="140%">
      <feConvolveMatrix order="3" preserveAlpha="true" kernelMatrix="-2 -1 0 -1 1 1 0 1 2"/>
    </filter>
    
    <!-- Helmet pattern for background -->
    <pattern id="helmetPattern" patternUnits="userSpaceOnUse" width="100" height="100" patternTransform="scale(0.15)">
      <!-- This is a simplified version of the helmet for the pattern -->
      <circle cx="50" cy="50" r="45" fill="#333333" opacity="0.03"/>
      <path d="M 30,40 L 50,65 L 70,40 C 70,60 60,75 50,80 C 40,75 30,60 30,40 Z" fill="#333333" opacity="0.03"/>
      <path d="M 35,40 C 35,44 40,48 50,48 C 60,48 65,44 65,40 C 65,50 60,55 50,55 C 40,55 35,50 35,40 Z" fill="#40B868" opacity="0.03"/>
    </pattern>
    
    <!-- Spade symbol with high detail -->
    <symbol id="spadeSymbol" viewBox="0 0 60 60">
      <!-- Base spade shape -->
      <path d="M 30,5 
               C 30,5 10,25 10,40
               C 10,50 20,55 30,45
               C 40,55 50,50 50,40
               C 50,25 30,5 30,5 Z" 
            fill="url(#spadeGradient)" 
            stroke="#000000" 
            stroke-width="0.5"/>
      
      <!-- Spade stem -->
      <path d="M 25,45 L 25,55 L 35,55 L 35,45 Z" 
            fill="url(#spadeGradient)" 
            stroke="#000000" 
            stroke-width="0.5"/>
      
      <!-- Highlights -->
      <path d="M 30,8 C 30,8 16,22 13,38" 
            fill="none" 
            stroke="#444444" 
            stroke-width="0.8" 
            opacity="0.4"/>
      
      <!-- More detailed interior lines -->
      <path d="M 22,32 C 23,36 25,40 30,42 C 35,40 37,36 38,32" 
            fill="none" 
            stroke="#111111" 
            stroke-width="0.3" 
            opacity="0.3"/>
      
      <!-- Base highlight -->
      <path d="M 28,51 L 32,51" 
            fill="none" 
            stroke="#444444" 
            stroke-width="0.5" 
            opacity="0.5"/>
    </symbol>
  </defs>
  
  <!-- Card base with rounded corners -->
  <rect x="2" y="2" width="96" height="146" rx="10" ry="10" fill="url(#cardGradient)" stroke="#333" stroke-width="2" filter="url(#cardShadow)" />
  
  <!-- Card texture pattern -->
  <rect x="2" y="2" width="96" height="146" rx="10" ry="10" fill="url(#helmetPattern)" />
  
  <!-- Border with emerald accent -->
  <rect x="6" y="6" width="88" height="138" rx="6" ry="6" fill="none" stroke="url(#borderGradient)" stroke-width="1.2" />
  
  <!-- Top left corner box with "A" -->
  <g class="corner top-left">
    <rect x="8" y="8" width="24" height="36" rx="3" ry="3" fill="url(#cornerGradient)" stroke="#ddd" stroke-width="0.5" filter="url(#cardShadow)" />
    
    <!-- Spade in top left -->
    <use xlink:href="#spadeSymbol" x="14" y="24" width="12" height="12" />
    
    <!-- "A" character -->
    <text x="20" y="20" font-family="Times New Roman, serif" font-weight="bold" font-size="22" fill="#000000" text-anchor="middle" filter="url(#textShadow)">A</text>
  </g>
  
  <!-- Bottom right corner box with "A" (upside down) -->
  <g class="corner bottom-right" transform="rotate(180, 50, 75)">
    <rect x="8" y="8" width="24" height="36" rx="3" ry="3" fill="url(#cornerGradient)" stroke="#ddd" stroke-width="0.5" filter="url(#cardShadow)" />
    
    <!-- Spade in bottom right -->
    <use xlink:href="#spadeSymbol" x="14" y="24" width="12" height="12" />
    
    <!-- "A" character -->
    <text x="20" y="20" font-family="Times New Roman, serif" font-weight="bold" font-size="22" fill="#000000" text-anchor="middle" filter="url(#textShadow)">A</text>
  </g>
  
  <!-- Large center spade -->
  <use xlink:href="#spadeSymbol" x="20" y="45" width="60" height="60" filter="url(#emboss)" />
  
  <!-- Deadside Helmet Logo (centered) -->
  <g id="deadside-logo" transform="translate(50, 75) scale(0.25)" style="opacity: 0.1">
    <!-- Base helmet circle -->
    <circle cx="0" cy="0" r="45" fill="#333333" stroke="#222222" stroke-width="1" />
    
    <!-- Spikes around the edge -->
    <g id="helmet-spikes">
      <!-- 12 evenly distributed spikes around helmet -->
      <path d="M 38,0 L 50,0 L 47,7 Z" fill="#9A7D5A" stroke="#755C3E" stroke-width="0.5" transform="rotate(0)" />
      <path d="M 38,0 L 50,0 L 47,7 Z" fill="#9A7D5A" stroke="#755C3E" stroke-width="0.5" transform="rotate(30)" />
      <path d="M 38,0 L 50,0 L 47,7 Z" fill="#9A7D5A" stroke="#755C3E" stroke-width="0.5" transform="rotate(60)" />
      <path d="M 38,0 L 50,0 L 47,7 Z" fill="#9A7D5A" stroke="#755C3E" stroke-width="0.5" transform="rotate(90)" />
      <path d="M 38,0 L 50,0 L 47,7 Z" fill="#9A7D5A" stroke="#755C3E" stroke-width="0.5" transform="rotate(120)" />
      <path d="M 38,0 L 50,0 L 47,7 Z" fill="#9A7D5A" stroke="#755C3E" stroke-width="0.5" transform="rotate(150)" />
      <path d="M 38,0 L 50,0 L 47,7 Z" fill="#9A7D5A" stroke="#755C3E" stroke-width="0.5" transform="rotate(180)" />
      <path d="M 38,0 L 50,0 L 47,7 Z" fill="#9A7D5A" stroke="#755C3E" stroke-width="0.5" transform="rotate(210)" />
      <path d="M 38,0 L 50,0 L 47,7 Z" fill="#9A7D5A" stroke="#755C3E" stroke-width="0.5" transform="rotate(240)" />
      <path d="M 38,0 L 50,0 L 47,7 Z" fill="#9A7D5A" stroke="#755C3E" stroke-width="0.5" transform="rotate(270)" />
      <path d="M 38,0 L 50,0 L 47,7 Z" fill="#9A7D5A" stroke="#755C3E" stroke-width="0.5" transform="rotate(300)" />
      <path d="M 38,0 L 50,0 L 47,7 Z" fill="#9A7D5A" stroke="#755C3E" stroke-width="0.5" transform="rotate(330)" />
    </g>
    
    <!-- Face mask -->
    <path d="M -20,-10 L 0,15 L 20,-10 C 20,10 10,25 0,30 C -10,25 -20,10 -20,-10 Z" fill="#555555" stroke="#333333" stroke-width="0.5" />
    
    <!-- Helmet details -->
    <rect x="-5" y="-35" width="10" height="15" rx="2" fill="#444444" stroke="#222222" stroke-width="0.5" />
    <rect x="-3" y="-40" width="6" height="5" rx="1" fill="#444444" stroke="#222222" stroke-width="0.5" />
    <rect x="-3" y="-25" width="6" height="5" rx="1" fill="#666666" stroke="#555555" stroke-width="0.2" />
    <circle cx="0" cy="-23" r="1.5" fill="black" />
    
    <!-- Visor with glowing effect -->
    <path d="M -15,-10 C -15,-6 -10,-2 0,-2 C 10,-2 15,-6 15,-10 C 15,0 10,5 0,5 C -10,5 -15,0 -15,-10 Z" fill="#50C878" />
    
    <!-- Side lights with glow -->
    <rect x="-18" y="-15" width="3" height="8" rx="1" fill="#50C878" />
    <rect x="15" y="-15" width="3" height="8" rx="1" fill="#50C878" />
    
    <!-- Breathing filters with detailed structure -->
    <g class="left-filter">
      <circle cx="-7" cy="15" r="3" fill="#666666" stroke="#555555" stroke-width="0.2" />
      <circle cx="-7" cy="15" r="1.5" fill="#333" />
      <path d="M -8.5,13.5 L -5.5,16.5 M -8.5,16.5 L -5.5,13.5" stroke="#555" stroke-width="0.2" />
    </g>
    
    <g class="right-filter">
      <circle cx="7" cy="15" r="3" fill="#666666" stroke="#555555" stroke-width="0.2" />
      <circle cx="7" cy="15" r="1.5" fill="#333" />
      <path d="M 5.5,13.5 L 8.5,16.5 M 5.5,16.5 L 8.5,13.5" stroke="#555" stroke-width="0.2" />
    </g>
  </g>
  
  <!-- Additional flourishes and details -->
  <path d="M 14,72 C 16,76 18,78 20,80 C 22,78 24,76 26,72" stroke="#000000" stroke-width="0.7" fill="none" />
  <path d="M 74,72 C 76,76 78,78 80,80 C 82,78 84,76 86,72" stroke="#000000" stroke-width="0.7" fill="none" />
  
  <!-- Corner flourishes -->
  <path d="M 8,8 L 6,6 M 12,12 L 18,6" stroke="#50C878" stroke-width="0.7" fill="none" />
  <path d="M 92,8 L 94,6 M 88,12 L 82,6" stroke="#50C878" stroke-width="0.7" fill="none" />
  <path d="M 8,142 L 6,144 M 12,138 L 18,144" stroke="#50C878" stroke-width="0.7" fill="none" />
  <path d="M 92,142 L 94,144 M 88,138 L 82,144" stroke="#50C878" stroke-width="0.7" fill="none" />
</svg>