<?xml version="1.0" encoding="UTF-8" standalone="no"?>
<svg width="100" height="150" viewBox="0 0 100 150" xmlns="http://www.w3.org/2000/svg" xmlns:xlink="http://www.w3.org/1999/xlink">
  <style>
    /* Card base styles */
    .card-base {
      fill: white;
      stroke: #333;
      stroke-width: 2;
      filter: url(#cardShadow);
    }
    .card-inner-border {
      fill: none;
      stroke: url(#emeraldGradient);
      stroke-width: 1.2;
    }
    .card-corner {
      font-family: 'Arial', sans-serif;
      font-weight: bold;
      font-size: 16px;
      text-anchor: middle;
      filter: url(#textShadow);
    }
    .card-corner-box {
      fill: white;
      stroke: #ddd;
      stroke-width: 0.5;
      rx: 3;
      ry: 3;
      filter: url(#slightShadow);
    }
    
    /* Card suit colors */
    .hearts, .diamonds {
      fill: #c01a1a;
      color: #c01a1a;
    }
    .clubs, .spades {
      fill: #202020;
      color: #202020;
    }
    
    /* Emerald theme elements */
    .emerald-accent {
      fill: #50C878;
    }
    .emerald-glow {
      fill: #50C878;
      filter: url(#glow);
      opacity: 0.8;
    }
    .wasteland-accent {
      fill: #8B4513;
    }
    
    /* Helmet elements */
    .helmet-base {
      fill: #333333;
      stroke: #222222;
      stroke-width: 1;
    }
    .helmet-detail {
      fill: #555555;
      stroke: #444444;
      stroke-width: 0.5;
    }
    .helmet-visor {
      fill: url(#visorGradient);
    }
    .spike {
      fill: #9A7D5A; 
      stroke: #755C3E;
      stroke-width: 0.5;
    }
    
    /* Card texture and details */
    .card-texture {
      fill: url(#cardTexture);
      opacity: 0.03;
      mix-blend-mode: multiply;
    }
    .scratch {
      fill: none;
      stroke: #8B4513;
      stroke-width: 0.3;
      opacity: 0.4;
    }
    .card-decor {
      fill: none;
      stroke: #50C878;
      stroke-width: 0.7;
      opacity: 0.7;
    }
  </style>
  
  <!-- Definitions -->
  <defs>
    <!-- Filters -->
    <filter id="cardShadow" x="-10%" y="-10%" width="120%" height="120%">
      <feDropShadow dx="0" dy="1" stdDeviation="1" flood-color="black" flood-opacity="0.3"/>
    </filter>
    
    <filter id="slightShadow" x="-10%" y="-10%" width="120%" height="120%">
      <feDropShadow dx="0" dy="0.5" stdDeviation="0.5" flood-color="black" flood-opacity="0.2"/>
    </filter>
    
    <filter id="textShadow" x="-20%" y="-20%" width="140%" height="140%">
      <feDropShadow dx="0.5" dy="0.5" stdDeviation="0.5" flood-color="black" flood-opacity="0.3"/>
    </filter>
    
    <filter id="glow" x="-30%" y="-30%" width="160%" height="160%">
      <feGaussianBlur stdDeviation="1.5" result="blur"/>
      <feComposite in="SourceGraphic" in2="blur" operator="over"/>
    </filter>
    
    <!-- Gradients -->
    <linearGradient id="emeraldGradient" x1="0%" y1="0%" x2="100%" y2="100%">
      <stop offset="0%" stop-color="#60D888" />
      <stop offset="50%" stop-color="#50C878" />
      <stop offset="100%" stop-color="#40B868" />
    </linearGradient>
    
    <radialGradient id="visorGradient" cx="0.5" cy="0.3" r="0.7" fx="0.5" fy="0.3">
      <stop offset="0%" stop-color="#80F8A8" stop-opacity="0.9" />
      <stop offset="70%" stop-color="#50C878" stop-opacity="0.8" />
      <stop offset="100%" stop-color="#30A858" stop-opacity="0.7" />
    </radialGradient>
    
    <!-- Textures -->
    <pattern id="cardTexture" patternUnits="userSpaceOnUse" width="50" height="50">
      <rect width="50" height="50" fill="#FFFFFF" />
      <path d="M 0,0 L 50,50 M 50,0 L 0,50" stroke="#555555" stroke-width="0.5" opacity="0.1" />
      <path d="M 25,0 L 25,50 M 0,25 L 50,25" stroke="#555555" stroke-width="0.3" opacity="0.1" />
    </pattern>
    
    <!-- Spike element -->
    <g id="cardSpikeElement">
      <path d="M 0,0 L 5,0 L 4,3 Z" class="spike" />
    </g>
  </defs>
  
  <!-- Card base with rounded corners -->
  <rect x="2" y="2" width="96" height="146" rx="10" ry="10" class="card-base" />
  
  <!-- Card texture -->
  <rect x="2" y="2" width="96" height="146" rx="10" ry="10" class="card-texture" />
  
  <!-- Inner border with emerald accent -->
  <rect x="6" y="6" width="88" height="138" rx="6" ry="6" class="card-inner-border" />
  
  <!-- Corner embellishments - top left -->
  <g class="corner-decoration">
    <!-- Top left corner box -->
    <rect x="8" y="8" width="24" height="36" class="card-corner-box" />
    
    <!-- Decorative spikes -->
    <g transform="translate(20, 8)">
      <use xlink:href="#cardSpikeElement" />
    </g>
    <g transform="translate(15, 8) rotate(-30)">
      <use xlink:href="#cardSpikeElement" />
    </g>
    <g transform="translate(25, 8) rotate(30)">
      <use xlink:href="#cardSpikeElement" />
    </g>
    
    <!-- Card value -->
    <text x="20" y="28" class="card-corner {{SUIT_CLASS}}">{{VALUE}}</text>
    <text x="20" y="40" class="card-corner {{SUIT_CLASS}}" style="font-size: 20px;">{{SUIT_SYMBOL}}</text>
  </g>
  
  <!-- Corner embellishments - bottom right (upside down) -->
  <g class="corner-decoration" transform="rotate(180, 50, 75)">
    <!-- Bottom right corner box -->
    <rect x="8" y="8" width="24" height="36" class="card-corner-box" />
    
    <!-- Decorative spikes -->
    <g transform="translate(20, 8)">
      <use xlink:href="#cardSpikeElement" />
    </g>
    <g transform="translate(15, 8) rotate(-30)">
      <use xlink:href="#cardSpikeElement" />
    </g>
    <g transform="translate(25, 8) rotate(30)">
      <use xlink:href="#cardSpikeElement" />
    </g>
    
    <!-- Card value -->
    <text x="20" y="28" class="card-corner {{SUIT_CLASS}}">{{VALUE}}</text>
    <text x="20" y="40" class="card-corner {{SUIT_CLASS}}" style="font-size: 20px;">{{SUIT_SYMBOL}}</text>
  </g>
  
  <!-- Decorative elements -->
  <path d="M 50,15 C 60,25 65,40 50,50 C 35,40 40,25 50,15 Z" class="card-decor" stroke-dasharray="1,0.5" />
  <path d="M 50,100 C 60,110 65,125 50,135 C 35,125 40,110 50,100 Z" class="card-decor" stroke-dasharray="1,0.5" />
  
  <!-- Wasteland damage effect (scratches) -->
  <g class="scratch">
    <path d="M 15,30 C 20,25 25,20 30,25" />
    <path d="M 70,30 C 75,25 80,20 85,25" />
    <path d="M 15,120 C 20,125 25,130 30,125" />
    <path d="M 70,120 C 75,125 80,130 85,125" />
    <path d="M 30,75 C 40,70 50,80 60,75 C 70,80 80,75 90,85" />
  </g>
  
  <!-- Center design - will be replaced -->
  {{CENTER_DESIGN}}
  
  <!-- Deadside Helmet Logo (centered, shown when no center design is specified) -->
  <g id="deadside-logo" transform="translate(50, 75) scale(0.35)" style="opacity: {{LOGO_OPACITY}}">
    <!-- Helmet base -->
    <circle cx="0" cy="0" r="45" class="helmet-base" />
    
    <!-- Spikes around the edge -->
    <g id="helmet-spikes">
      <path d="M 38,0 L 50,0 L 47,7 Z" class="spike" transform="rotate(0)" />
      <path d="M 38,0 L 50,0 L 47,7 Z" class="spike" transform="rotate(30)" />
      <path d="M 38,0 L 50,0 L 47,7 Z" class="spike" transform="rotate(60)" />
      <path d="M 38,0 L 50,0 L 47,7 Z" class="spike" transform="rotate(90)" />
      <path d="M 38,0 L 50,0 L 47,7 Z" class="spike" transform="rotate(120)" />
      <path d="M 38,0 L 50,0 L 47,7 Z" class="spike" transform="rotate(150)" />
      <path d="M 38,0 L 50,0 L 47,7 Z" class="spike" transform="rotate(180)" />
      <path d="M 38,0 L 50,0 L 47,7 Z" class="spike" transform="rotate(210)" />
      <path d="M 38,0 L 50,0 L 47,7 Z" class="spike" transform="rotate(240)" />
      <path d="M 38,0 L 50,0 L 47,7 Z" class="spike" transform="rotate(270)" />
      <path d="M 38,0 L 50,0 L 47,7 Z" class="spike" transform="rotate(300)" />
      <path d="M 38,0 L 50,0 L 47,7 Z" class="spike" transform="rotate(330)" />
    </g>
    
    <!-- Face mask -->
    <path d="M -20,-10 L 0,15 L 20,-10 C 20,10 10,25 0,30 C -10,25 -20,10 -20,-10 Z" class="helmet-detail" />
    
    <!-- Helmet details -->
    <rect x="-5" y="-35" width="10" height="15" rx="2" class="helmet-detail" />
    <rect x="-3" y="-40" width="6" height="5" rx="1" class="helmet-detail" />
    <rect x="-3" y="-25" width="6" height="5" rx="1" class="helmet-detail" />
    <circle cx="0" cy="-23" r="1.5" fill="black" />
    
    <!-- Eyes/visor -->
    <path d="M -15,-10 C -15,-6 -10,-2 0,-2 C 10,-2 15,-6 15,-10 C 15,0 10,5 0,5 C -10,5 -15,0 -15,-10 Z" class="helmet-visor" />
    
    <!-- Side lights -->
    <rect x="-18" y="-15" width="3" height="8" rx="1" class="emerald-glow" />
    <rect x="15" y="-15" width="3" height="8" rx="1" class="emerald-glow" />
    
    <!-- Breathing filters -->
    <circle cx="-7" cy="15" r="3" class="helmet-detail" />
    <circle cx="7" cy="15" r="3" class="helmet-detail" />
    <circle cx="-7" cy="15" r="1.5" fill="#333" />
    <circle cx="7" cy="15" r="1.5" fill="#333" />
  </g>
  
  <!-- Border corner accents -->
  <path d="M 8,8 L 6,6 M 12,12 L 18,6" stroke="#50C878" stroke-width="0.7" fill="none" />
  <path d="M 92,8 L 94,6 M 88,12 L 82,6" stroke="#50C878" stroke-width="0.7" fill="none" />
  <path d="M 8,142 L 6,144 M 12,138 L 18,144" stroke="#50C878" stroke-width="0.7" fill="none" />
  <path d="M 92,142 L 94,144 M 88,138 L 82,144" stroke="#50C878" stroke-width="0.7" fill="none" />
</svg>