<?xml version="1.0" encoding="UTF-8" standalone="no"?>
<svg width="100" height="150" viewBox="0 0 100 150" xmlns="http://www.w3.org/2000/svg" xmlns:xlink="http://www.w3.org/1999/xlink">
  <style>
    /* Card base styles */
    .card-back {
      fill: #222222;
      stroke: #333333;
      stroke-width: 2;
      filter: url(#cardShadow);
    }
    .card-inner-border {
      fill: none;
      stroke: url(#emeraldGradient);
      stroke-width: 1.2;
    }
    
    /* Patterns and textures */
    .card-pattern {
      fill: none;
      stroke: #50C878;
      stroke-width: 0.5;
      stroke-dasharray: 1,1;
      opacity: 0.7;
    }
    .card-grid {
      fill: none;
      stroke: #444444;
      stroke-width: 0.2;
      opacity: 0.5;
    }
    .card-texture {
      fill: url(#metalTexture);
      opacity: 0.1;
      mix-blend-mode: overlay;
    }
    
    /* Accents and effects */
    .emerald-accent {
      fill: #50C878;
      opacity: 0.8;
    }
    .emerald-glow {
      fill: #50C878;
      filter: url(#glow);
      opacity: 0.8;
    }
    .text-shadow {
      filter: url(#textShadow);
    }
    .etched-text {
      fill: none;
      stroke: #50C878;
      stroke-width: 0.3;
      filter: url(#textGlow);
    }
    .card-decor {
      fill: none;
      stroke: url(#emeraldGradient);
      stroke-width: 0.7;
      opacity: 0.7;
    }
    
    /* Helmet elements */
    .helmet-base {
      fill: #333333;
      stroke: #222222;
      stroke-width: 1;
    }
    .helmet-detail {
      fill: #555555;
      stroke: #444444;
      stroke-width: 0.5;
    }
    .helmet-visor {
      fill: url(#visorGradient);
    }
    .spike {
      fill: #9A7D5A; 
      stroke: #755C3E;
      stroke-width: 0.5;
    }
    .worn-metal {
      fill: #444444;
      stroke: #333333;
      stroke-width: 0.5;
      filter: url(#noise);
    }
  </style>
  
  <!-- Definitions -->
  <defs>
    <!-- Filters -->
    <filter id="cardShadow" x="-10%" y="-10%" width="120%" height="120%">
      <feDropShadow dx="0" dy="2" stdDeviation="1" flood-color="black" flood-opacity="0.5"/>
    </filter>
    
    <filter id="glow" x="-30%" y="-30%" width="160%" height="160%">
      <feGaussianBlur stdDeviation="1.5" result="blur"/>
      <feComposite in="SourceGraphic" in2="blur" operator="over"/>
    </filter>
    
    <filter id="textShadow" x="-20%" y="-20%" width="140%" height="140%">
      <feDropShadow dx="0.5" dy="0.5" stdDeviation="1" flood-color="black" flood-opacity="0.8"/>
    </filter>
    
    <filter id="textGlow" x="-30%" y="-30%" width="160%" height="160%">
      <feGaussianBlur stdDeviation="0.5" result="blur"/>
      <feComposite in="SourceGraphic" in2="blur" operator="over"/>
    </filter>
    
    <filter id="noise" x="0%" y="0%" width="100%" height="100%">
      <feTurbulence type="fractalNoise" baseFrequency="0.8" numOctaves="2" stitchTiles="stitch" result="noise"/>
      <feColorMatrix type="matrix" values="1 0 0 0 0 0 1 0 0 0 0 0 1 0 0 0 0 0 0.03 0" in="noise" result="noiseTrans"/>
      <feComposite operator="in" in="SourceGraphic" in2="noiseTrans" result="noiseComp"/>
      <feComposite operator="over" in="noiseComp" in2="SourceGraphic"/>
    </filter>
    
    <!-- Gradients -->
    <linearGradient id="emeraldGradient" x1="0%" y1="0%" x2="100%" y2="100%">
      <stop offset="0%" stop-color="#60D888" />
      <stop offset="50%" stop-color="#50C878" />
      <stop offset="100%" stop-color="#40B868" />
    </linearGradient>
    
    <radialGradient id="visorGradient" cx="0.5" cy="0.3" r="0.7" fx="0.5" fy="0.3">
      <stop offset="0%" stop-color="#80F8A8" stop-opacity="0.9" />
      <stop offset="70%" stop-color="#50C878" stop-opacity="0.8" />
      <stop offset="100%" stop-color="#30A858" stop-opacity="0.7" />
    </radialGradient>
    
    <!-- Textures -->
    <pattern id="metalTexture" patternUnits="userSpaceOnUse" width="100" height="100">
      <rect width="100" height="100" fill="#111111" />
      <path d="M 0,0 L 100,100 M 100,0 L 0,100" stroke="#555555" stroke-width="0.5" opacity="0.2" />
      <path d="M 0,50 L 100,50 M 50,0 L 50,100" stroke="#444444" stroke-width="0.7" opacity="0.1" />
      <!-- Simulated scratches -->
      <path d="M 20,30 C 30,20 40,25 50,15" stroke="#888888" stroke-width="0.3" opacity="0.3" />
      <path d="M 70,80 C 60,70 80,60 70,50" stroke="#888888" stroke-width="0.3" opacity="0.3" />
      <path d="M 10,90 C 20,80 10,70 20,60" stroke="#888888" stroke-width="0.3" opacity="0.3" />
    </pattern>
    
    <!-- Spike element for reuse -->
    <g id="cardSpikeElement">
      <path d="M 0,0 L 7,0 L 6,4 Z" class="spike" />
    </g>
  </defs>
  
  <!-- Card base with rounded corners -->
  <rect x="2" y="2" width="96" height="146" rx="10" ry="10" class="card-back" />
  
  <!-- Card texture -->
  <rect x="2" y="2" width="96" height="146" rx="10" ry="10" class="card-texture" />
  
  <!-- Inner border with emerald accent -->
  <rect x="6" y="6" width="88" height="138" rx="6" ry="6" class="card-inner-border" />
  
  <!-- Grid pattern with a more subtle appearance -->
  <g class="card-grid">
    <!-- Horizontal lines -->
    <path d="M 10,10 L 90,10" />
    <path d="M 10,20 L 90,20" />
    <path d="M 10,30 L 90,30" />
    <path d="M 10,40 L 90,40" />
    <path d="M 10,50 L 90,50" />
    <path d="M 10,60 L 90,60" />
    <path d="M 10,70 L 90,70" />
    <path d="M 10,80 L 90,80" />
    <path d="M 10,90 L 90,90" />
    <path d="M 10,100 L 90,100" />
    <path d="M 10,110 L 90,110" />
    <path d="M 10,120 L 90,120" />
    <path d="M 10,130 L 90,130" />
    <path d="M 10,140 L 90,140" />
    
    <!-- Vertical lines -->
    <path d="M 10,10 L 10,140" />
    <path d="M 20,10 L 20,140" />
    <path d="M 30,10 L 30,140" />
    <path d="M 40,10 L 40,140" />
    <path d="M 50,10 L 50,140" />
    <path d="M 60,10 L 60,140" />
    <path d="M 70,10 L 70,140" />
    <path d="M 80,10 L 80,140" />
    <path d="M 90,10 L 90,140" />
  </g>
  
  <!-- Decorative elements -->
  <g class="card-decor">
    <path d="M 15,15 C 25,20 35,15 45,20 C 55,15 65,20 75,15 C 85,20 90,15 90,15" stroke-dasharray="1,0.5" />
    <path d="M 15,135 C 25,130 35,135 45,130 C 55,135 65,130 75,135 C 85,130 90,135 90,135" stroke-dasharray="1,0.5" />
  </g>
  
  <!-- Pattern overlay with detailed design -->
  <g class="card-pattern">
    <!-- Diagonal lines -->
    <path d="M 10,10 L 90,140" />
    <path d="M 90,10 L 10,140" />
    
    <!-- Center horizontal and vertical lines -->
    <path d="M 10,75 L 90,75" />
    <path d="M 50,10 L 50,140" />
    
    <!-- Circular patterns -->
    <circle cx="50" cy="75" r="40" />
    <circle cx="50" cy="75" r="30" />
    <circle cx="50" cy="75" r="20" />
    
    <!-- Additional design elements -->
    <path d="M 20,20 L 80,20 L 80,130 L 20,130 Z" />
    <path d="M 30,30 L 70,30 L 70,120 L 30,120 Z" />
  </g>
  
  <!-- Corner accent embellishments with spikes -->
  <g class="corner-accents">
    <!-- Top-left corner -->
    <g transform="translate(10, 10)">
      <use xlink:href="#cardSpikeElement" />
    </g>
    <g transform="translate(10, 10) rotate(90)">
      <use xlink:href="#cardSpikeElement" />
    </g>
    
    <!-- Top-right corner -->
    <g transform="translate(90, 10) rotate(90)">
      <use xlink:href="#cardSpikeElement" />
    </g>
    <g transform="translate(90, 10) rotate(180)">
      <use xlink:href="#cardSpikeElement" />
    </g>
    
    <!-- Bottom-left corner -->
    <g transform="translate(10, 140) rotate(270)">
      <use xlink:href="#cardSpikeElement" />
    </g>
    <g transform="translate(10, 140) rotate(0)">
      <use xlink:href="#cardSpikeElement" />
    </g>
    
    <!-- Bottom-right corner -->
    <g transform="translate(90, 140) rotate(180)">
      <use xlink:href="#cardSpikeElement" />
    </g>
    <g transform="translate(90, 140) rotate(270)">
      <use xlink:href="#cardSpikeElement" />
    </g>
  </g>
  
  <!-- Deadside Helmet Logo (centered) -->
  <g id="deadside-logo" transform="translate(50, 75) scale(0.65)">
    <!-- Metal base plate with texture -->
    <circle cx="0" cy="0" r="46" class="worn-metal" />
    
    <!-- Helmet base -->
    <circle cx="0" cy="0" r="45" class="helmet-base" />
    
    <!-- Spikes around the edge - 12 evenly distributed -->
    <g id="helmet-spikes">
      <use xlink:href="#cardSpikeElement" transform="translate(45, 0) rotate(0)" />
      <use xlink:href="#cardSpikeElement" transform="translate(45, 0) rotate(30)" />
      <use xlink:href="#cardSpikeElement" transform="translate(45, 0) rotate(60)" />
      <use xlink:href="#cardSpikeElement" transform="translate(45, 0) rotate(90)" />
      <use xlink:href="#cardSpikeElement" transform="translate(45, 0) rotate(120)" />
      <use xlink:href="#cardSpikeElement" transform="translate(45, 0) rotate(150)" />
      <use xlink:href="#cardSpikeElement" transform="translate(45, 0) rotate(180)" />
      <use xlink:href="#cardSpikeElement" transform="translate(45, 0) rotate(210)" />
      <use xlink:href="#cardSpikeElement" transform="translate(45, 0) rotate(240)" />
      <use xlink:href="#cardSpikeElement" transform="translate(45, 0) rotate(270)" />
      <use xlink:href="#cardSpikeElement" transform="translate(45, 0) rotate(300)" />
      <use xlink:href="#cardSpikeElement" transform="translate(45, 0) rotate(330)" />
    </g>
    
    <!-- Face mask with refined details -->
    <path d="M -20,-10 L 0,15 L 20,-10 C 20,10 10,25 0,30 C -10,25 -20,10 -20,-10 Z" class="helmet-detail" />
    
    <!-- Helmet top details -->
    <rect x="-5" y="-35" width="10" height="15" rx="2" class="helmet-detail" />
    <rect x="-3" y="-40" width="6" height="5" rx="1" class="helmet-detail" />
    <rect x="-3" y="-25" width="6" height="5" rx="1" class="helmet-detail" />
    <circle cx="0" cy="-23" r="1.5" fill="black" />
    
    <!-- Eyes/visor with gradient glow -->
    <path d="M -15,-10 C -15,-6 -10,-2 0,-2 C 10,-2 15,-6 15,-10 C 15,0 10,5 0,5 C -10,5 -15,0 -15,-10 Z" class="helmet-visor" />
    
    <!-- Side lights with glow effect -->
    <rect x="-18" y="-15" width="3" height="8" rx="1" class="emerald-glow" />
    <rect x="15" y="-15" width="3" height="8" rx="1" class="emerald-glow" />
    
    <!-- Breathing filters with detailed rendering -->
    <circle cx="-7" cy="15" r="3" class="helmet-detail" />
    <circle cx="7" cy="15" r="3" class="helmet-detail" />
    <circle cx="-7" cy="15" r="1.5" fill="#333" />
    <circle cx="7" cy="15" r="1.5" fill="#333" />
    
    <!-- Additional helmet details - battle damage -->
    <path d="M -30,0 C -25,-5 -20,-2 -15,-5" stroke="#666666" stroke-width="0.3" fill="none" />
    <path d="M 15,20 C 20,15 25,18 30,15" stroke="#666666" stroke-width="0.3" fill="none" />
  </g>
  
  <!-- Tower of Temptation title at the bottom with glow effect -->
  <text x="50" y="143" fill="#50C878" font-family="Arial, sans-serif" font-weight="bold" font-size="7" text-anchor="middle" class="text-shadow">TOWER OF TEMPTATION</text>
  
  <!-- Embossed decorative lettering with subtle glow -->
  <text x="50" y="26" font-family="Arial, sans-serif" font-weight="bold" font-size="7" text-anchor="middle" class="etched-text">DEADSIDE</text>
  <text x="50" y="132" font-family="Arial, sans-serif" font-weight="bold" font-size="6" text-anchor="middle" class="etched-text" transform="rotate(180, 50, 132)">DEADSIDE</text>
</svg>