<?xml version="1.0" encoding="UTF-8" standalone="no"?>
<svg width="100" height="100" viewBox="0 0 100 100" xmlns="http://www.w3.org/2000/svg">
  <style>
    .helmet-base {
      fill: #333333;
      stroke: #222222;
      stroke-width: 1;
    }
    .helmet-armor {
      fill: #444444;
      stroke: #222222;
      stroke-width: 0.5;
    }
    .helmet-shine {
      fill: #666666;
      stroke: #555555;
      stroke-width: 0.2;
    }
    .helmet-visor {
      fill: #50C878; /* Emerald green */
    }
    .helmet-visor-glow {
      fill: #50C878;
      filter: url(#glow);
    }
    .mask-base {
      fill: #555555;
      stroke: #333333;
      stroke-width: 0.5;
    }
    .spike {
      fill: #9A7D5A; /* Bronze/brass color */
      stroke: #755C3E;
      stroke-width: 0.5;
    }
    .detail {
      fill: none;
      stroke: #777777;
      stroke-width: 0.3;
    }
    .crack {
      fill: none;
      stroke: #222222;
      stroke-width: 0.2;
      stroke-dasharray: 1,0.5;
    }
  </style>
  
  <!-- Filters for glow effects -->
  <defs>
    <filter id="glow" x="-30%" y="-30%" width="160%" height="160%">
      <feGaussianBlur stdDeviation="1.5" result="blur"/>
      <feComposite in="SourceGraphic" in2="blur" operator="over"/>
    </filter>
    <radialGradient id="visorGradient" cx="0.5" cy="0.5" r="0.5" fx="0.4" fy="0.4">
      <stop offset="0%" stop-color="#90FFB0" stop-opacity="0.8"/>
      <stop offset="100%" stop-color="#50C878" stop-opacity="0.9"/>
    </radialGradient>
  </defs>
  
  <!-- Main helmet (circular base) -->
  <circle cx="50" cy="50" r="45" class="helmet-base" />
  
  <!-- Spikes around the edge -->
  <g id="spikes">
    <!-- Generate 16 spikes around the circle -->
    <g transform="translate(50,50)">
      <!-- Loop to create spikes programmatically -->
      <path d="M 38,0 L 50,0 L 47,7 Z" class="spike" transform="rotate(0)"/>
      <path d="M 38,0 L 50,0 L 47,7 Z" class="spike" transform="rotate(22.5)"/>
      <path d="M 38,0 L 50,0 L 47,7 Z" class="spike" transform="rotate(45)"/>
      <path d="M 38,0 L 50,0 L 47,7 Z" class="spike" transform="rotate(67.5)"/>
      <path d="M 38,0 L 50,0 L 47,7 Z" class="spike" transform="rotate(90)"/>
      <path d="M 38,0 L 50,0 L 47,7 Z" class="spike" transform="rotate(112.5)"/>
      <path d="M 38,0 L 50,0 L 47,7 Z" class="spike" transform="rotate(135)"/>
      <path d="M 38,0 L 50,0 L 47,7 Z" class="spike" transform="rotate(157.5)"/>
      <path d="M 38,0 L 50,0 L 47,7 Z" class="spike" transform="rotate(180)"/>
      <path d="M 38,0 L 50,0 L 47,7 Z" class="spike" transform="rotate(202.5)"/>
      <path d="M 38,0 L 50,0 L 47,7 Z" class="spike" transform="rotate(225)"/>
      <path d="M 38,0 L 50,0 L 47,7 Z" class="spike" transform="rotate(247.5)"/>
      <path d="M 38,0 L 50,0 L 47,7 Z" class="spike" transform="rotate(270)"/>
      <path d="M 38,0 L 50,0 L 47,7 Z" class="spike" transform="rotate(292.5)"/>
      <path d="M 38,0 L 50,0 L 47,7 Z" class="spike" transform="rotate(315)"/>
      <path d="M 38,0 L 50,0 L 47,7 Z" class="spike" transform="rotate(337.5)"/>
    </g>
  </g>
  
  <!-- Face mask base -->
  <path d="M 30,40 L 50,65 L 70,40 C 70,60 60,75 50,80 C 40,75 30,60 30,40 Z" class="mask-base" />
  
  <!-- Details on mask -->
  <path d="M 50,65 L 50,80" class="detail" />
  <path d="M 40,50 L 60,50" class="detail" />
  
  <!-- Helmet top features -->
  <rect x="45" y="15" width="10" height="15" rx="2" class="helmet-armor" />
  <rect x="47" y="10" width="6" height="5" rx="1" class="helmet-armor" />
  
  <!-- Camera/sensor mount -->
  <rect x="47" y="25" width="6" height="5" rx="1" class="helmet-shine" />
  <circle cx="50" cy="27" r="1.5" fill="black" />
  
  <!-- Eyes/visor -->
  <path d="M 35,40 C 35,44 40,48 50,48 C 60,48 65,44 65,40 C 65,50 60,55 50,55 C 40,55 35,50 35,40 Z" fill="url(#visorGradient)" />
  
  <!-- Light-up elements on sides -->
  <rect x="32" y="35" width="3" height="8" rx="1" class="helmet-visor-glow" />
  <rect x="65" y="35" width="3" height="8" rx="1" class="helmet-visor-glow" />
  
  <!-- Breathing filters -->
  <circle cx="43" cy="65" r="3" class="helmet-shine" />
  <circle cx="57" cy="65" r="3" class="helmet-shine" />
  <circle cx="43" cy="65" r="1.5" fill="#333" />
  <circle cx="57" cy="65" r="1.5" fill="#333" />
  
  <!-- Damage/wear details -->
  <path d="M 40,20 C 42,22 45,21 48,20" class="crack" />
  <path d="M 60,30 C 63,33 64,36 63,40" class="crack" />
  <path d="M 25,45 C 28,48 28,52 25,55" class="crack" />
</svg>