<?xml version="1.0" encoding="UTF-8" standalone="no"?>
<svg width="100" height="100" viewBox="0 0 100 100" xmlns="http://www.w3.org/2000/svg">
  <style>
    .emerald-base {
      fill: #50C878; /* Emerald green */
    }
    .emerald-dark {
      fill: #2E8B57; /* Sea green for shadows */
    }
    .emerald-light {
      fill: #BFFFBF; /* Light green for highlights */
    }
    .emerald-outline {
      fill: none;
      stroke: #105030;
      stroke-width: 1;
    }
    .emerald-facet {
      fill: none;
      stroke: #105030;
      stroke-width: 0.5;
      stroke-opacity: 0.7;
    }
  </style>
  
  <!-- Main emerald shape (octagonal) -->
  <g transform="translate(50, 50)">
    <!-- Base shape -->
    <path d="M 0,-40 L 30,-25 L 40,0 L 30,25 L 0,40 L -30,25 L -40,0 L -30,-25 Z" class="emerald-base" />
    
    <!-- Shadow facets -->
    <path d="M -30,-25 L 0,-40 L 0,40 L -30,25 Z" class="emerald-dark" />
    <path d="M 30,25 L 40,0 L -40,0 L -30,25 Z" class="emerald-dark" opacity="0.5" />
    
    <!-- Highlight facets -->
    <path d="M 0,-40 L 30,-25 L 40,0 L 0,0 Z" class="emerald-light" opacity="0.7" />
    <path d="M 0,0 L 30,25 L 0,40 L -30,25 Z" class="emerald-light" opacity="0.3" />
    
    <!-- Outline -->
    <path d="M 0,-40 L 30,-25 L 40,0 L 30,25 L 0,40 L -30,25 L -40,0 L -30,-25 Z" class="emerald-outline" />
    
    <!-- Inner facets -->
    <path d="M 0,-40 L 0,40" class="emerald-facet" />
    <path d="M -40,0 L 40,0" class="emerald-facet" />
    <path d="M -30,-25 L 30,25" class="emerald-facet" />
    <path d="M 30,-25 L -30,25" class="emerald-facet" />
    
    <!-- Light reflection -->
    <ellipse cx="-15" cy="-15" rx="10" ry="8" fill="white" opacity="0.4" transform="rotate(-15)" />
    <ellipse cx="10" cy="5" rx="5" ry="3" fill="white" opacity="0.3" />
  </g>
  
  <!-- Subtle glow effect -->
  <circle cx="50" cy="50" r="45" fill="#50C878" opacity="0.1" />
</svg>