<?xml version="1.0" encoding="UTF-8" standalone="no"?>
<svg width="100" height="100" viewBox="0 0 100 100" xmlns="http://www.w3.org/2000/svg">
  <style>
    .helmet-shell {
      fill: #3D5B43; /* Military green */
      stroke: #243425;
      stroke-width: 1.5;
    }
    .helmet-edge {
      fill: #243425;
      stroke: #243425;
      stroke-width: 0.5;
    }
    .helmet-strap {
      fill: #9A7D5A; /* Khaki/tan */
      stroke: #755C3E;
      stroke-width: 1;
    }
    .helmet-buckle {
      fill: #888;
      stroke: #666;
      stroke-width: 0.5;
    }
    .helmet-padding {
      fill: #9A7D5A;
      stroke: #755C3E;
      stroke-width: 0.5;
      opacity: 0.8;
    }
    .helmet-bolt {
      fill: #777;
      stroke: #555;
      stroke-width: 0.5;
    }
    .deadside-accent {
      fill: #50C878; /* Emerald accent */
      stroke: #408860;
      stroke-width: 0.5;
    }
  </style>
  
  <!-- Background glow for Deadside theme -->
  <circle cx="50" cy="50" r="47" fill="#2F4F4F" opacity="0.2" />
  
  <!-- Main helmet shell -->
  <g transform="translate(50, 50)">
    <!-- Shell exterior -->
    <path d="M -30,0 A 30 30 0 0 1 30,0 C 30,10 25,20 20,25 L -20,25 C -25,20 -30,10 -30,0 Z" class="helmet-shell" />
    
    <!-- Bottom edge/rim -->
    <path d="M -20,25 L 20,25 C 25,28 25,28 20,30 L -20,30 C -25,28 -25,28 -20,25 Z" class="helmet-edge" />
    
    <!-- Interior view (padding) -->
    <ellipse cx="0" cy="15" rx="22" ry="10" class="helmet-padding" />
    
    <!-- Chinstrap -->
    <path d="M -20,25 L -20,40 M 20,25 L 20,40" class="helmet-strap" />
    <rect x="-25" y="35" width="50" height="6" rx="3" ry="3" class="helmet-strap" />
    
    <!-- Buckle -->
    <rect x="-5" y="36" width="10" height="4" rx="1" ry="1" class="helmet-buckle" />
    
    <!-- Attachment points and bolts -->
    <circle cx="-20" cy="25" r="2" class="helmet-bolt" />
    <circle cx="20" cy="25" r="2" class="helmet-bolt" />
    
    <!-- Front helmet details -->
    <path d="M -15,5 C -10,0 10,0 15,5" fill="none" stroke="#243425" stroke-width="1" />
    
    <!-- Camo netting or helmet cover texture -->
    <path d="M -20,5 L -15,10 M -5,5 L 0,10 M 10,5 L 15,10" stroke="#243425" stroke-width="0.7" fill="none" />
    <path d="M -25,10 L -20,15 M -10,10 L -5,15 M 5,10 L 10,15 M 20,10 L 25,15" stroke="#243425" stroke-width="0.7" fill="none" />
    
    <!-- Deadside-themed emerald accent (tactical light mount) -->
    <rect x="-5" y="-2" width="10" height="5" rx="1" ry="1" class="deadside-accent" />
    <circle cx="0" cy="0" r="3" class="deadside-accent" />
    
    <!-- Battle damage/scratches -->
    <path d="M -15,-10 L -10,-15 M 10,20 L 15,23 M 5,-15 L 10,-10" stroke="#243425" stroke-width="0.7" fill="none" opacity="0.7" />
  </g>
</svg>