<?xml version="1.0" encoding="UTF-8" standalone="no"?>
<svg width="300" height="300" viewBox="0 0 300 300" xmlns="http://www.w3.org/2000/svg" xmlns:xlink="http://www.w3.org/1999/xlink">
  <defs>
    <!-- Detailed Metal Textures -->
    <linearGradient id="metalGradient" x1="0%" y1="0%" x2="100%" y2="100%">
      <stop offset="0%" stop-color="#444444" />
      <stop offset="20%" stop-color="#3A3A3A" />
      <stop offset="40%" stop-color="#4A4A4A" />
      <stop offset="60%" stop-color="#303030" />
      <stop offset="80%" stop-color="#484848" />
      <stop offset="100%" stop-color="#383838" />
    </linearGradient>
    
    <linearGradient id="metalHighlight" x1="0%" y1="0%" x2="100%" y2="100%">
      <stop offset="0%" stop-color="#666666" />
      <stop offset="50%" stop-color="#555555" />
      <stop offset="100%" stop-color="#777777" />
    </linearGradient>
    
    <linearGradient id="darkMetalGradient" x1="0%" y1="0%" x2="100%" y2="100%">
      <stop offset="0%" stop-color="#2A2A2A" />
      <stop offset="50%" stop-color="#333333" />
      <stop offset="100%" stop-color="#222222" />
    </linearGradient>
    
    <linearGradient id="brassToneGradient" x1="0%" y1="0%" x2="100%" y2="100%">
      <stop offset="0%" stop-color="#B5A642" />
      <stop offset="25%" stop-color="#C9B45B" />
      <stop offset="50%" stop-color="#9A8A3C" />
      <stop offset="75%" stop-color="#AE9F4A" />
      <stop offset="100%" stop-color="#8C7E39" />
    </linearGradient>
    
    <!-- Visor Gradients -->
    <radialGradient id="visorGlowGradient" cx="0.5" cy="0.5" r="0.8" fx="0.4" fy="0.3">
      <stop offset="0%" stop-color="#90FFB0" stop-opacity="0.95" />
      <stop offset="30%" stop-color="#60D888" stop-opacity="0.9" />
      <stop offset="70%" stop-color="#50C878" stop-opacity="0.8" />
      <stop offset="100%" stop-color="#40B868" stop-opacity="0.7" />
    </radialGradient>
    
    <linearGradient id="visorReflection" x1="0%" y1="0%" x2="100%" y2="100%">
      <stop offset="0%" stop-color="#FFFFFF" stop-opacity="0.5" />
      <stop offset="20%" stop-color="#FFFFFF" stop-opacity="0.3" />
      <stop offset="30%" stop-color="#FFFFFF" stop-opacity="0.1" />
      <stop offset="100%" stop-color="#FFFFFF" stop-opacity="0" />
    </linearGradient>
    
    <!-- Damage and Wear Textures -->
    <filter id="metalnoise" x="0%" y="0%" width="100%" height="100%">
      <feTurbulence type="fractalNoise" baseFrequency="0.7" numOctaves="3" stitchTiles="stitch" result="noise"/>
      <feColorMatrix type="matrix" values="1 0 0 0 0 0 1 0 0 0 0 0 1 0 0 0 0 0 0.1 0" in="noise" result="noiseTrans"/>
      <feComposite operator="in" in="SourceGraphic" in2="noiseTrans" result="noiseComp"/>
      <feComposite operator="over" in="noiseComp" in2="SourceGraphic"/>
    </filter>
    
    <filter id="scratchesDamage" x="0%" y="0%" width="100%" height="100%">
      <feTurbulence type="turbulence" baseFrequency="0.15" numOctaves="2" seed="5" stitchTiles="stitch" result="turbulence"/>
      <feDisplacementMap in="SourceGraphic" in2="turbulence" scale="2" xChannelSelector="R" yChannelSelector="G"/>
    </filter>
    
    <!-- Light Effects -->
    <filter id="emeraldGlow" x="-50%" y="-50%" width="200%" height="200%">
      <feGaussianBlur in="SourceGraphic" stdDeviation="2" result="blur"/>
      <feColorMatrix in="blur" type="matrix" values="0 0 0 0 0.2 0 0 0 0 0.8 0 0 0 0 0.5 0 0 0 1 0" result="glow"/>
      <feBlend in="SourceGraphic" in2="glow" mode="screen"/>
    </filter>
    
    <filter id="innerShadow" x="-20%" y="-20%" width="140%" height="140%">
      <feGaussianBlur in="SourceAlpha" stdDeviation="3" result="blur"/>
      <feOffset in="blur" dx="0" dy="1" result="offsetBlur"/>
      <feComposite in="offsetBlur" in2="SourceAlpha" operator="arithmetic" k2="-1" k3="1" result="innerShadow"/>
      <feComposite in="SourceGraphic" in2="innerShadow" operator="over"/>
    </filter>
    
    <filter id="bevelEffect" x="-10%" y="-10%" width="120%" height="120%">
      <feGaussianBlur in="SourceAlpha" stdDeviation="2" result="blur"/>
      <feOffset in="blur" dx="-1" dy="-1" result="offsetBlur1"/>
      <feOffset in="blur" dx="1" dy="1" result="offsetBlur2"/>
      <feComposite in="offsetBlur1" in2="offsetBlur2" operator="arithmetic" k2="1" k3="-1" result="bevelDiff"/>
      <feComposite in="bevelDiff" in2="SourceAlpha" operator="in" result="bevel"/>
      <feComposite in="SourceGraphic" in2="bevel" operator="over"/>
    </filter>
    
    <!-- Spike Symbol for Reuse -->
    <symbol id="spikeElement" viewBox="0 0 20 30">
      <path d="M 0,0 L 20,0 L 18,8 C 16,15 12,20 10,30 C 8,20 4,15 2,8 Z" fill="url(#brassToneGradient)" stroke="#755C3E" stroke-width="0.5" filter="url(#bevelEffect)"/>
      <!-- Highlight along the top edge -->
      <path d="M 1,1 L 19,1 L 18,3" fill="none" stroke="#D0C090" stroke-width="0.8" stroke-opacity="0.6"/>
      <!-- Weathering/damage along the edges -->
      <path d="M 4,10 C 6,12 8,13 10,13 C 12,13 14,12 16,10" fill="none" stroke="#8C7E39" stroke-width="0.3" stroke-opacity="0.7"/>
      <!-- Bullet graze/scratch -->
      <path d="M 7,5 L 11,8" stroke="#333333" stroke-width="0.7" stroke-opacity="0.5"/>
    </symbol>
    
    <!-- Camera/Sensor Element -->
    <symbol id="cameraSensor" viewBox="0 0 20 20">
      <rect x="0" y="0" width="20" height="20" rx="2" fill="url(#darkMetalGradient)" stroke="#111111" stroke-width="0.8"/>
      <rect x="2" y="2" width="16" height="16" rx="1" fill="#222222" stroke="#111111" stroke-width="0.5"/>
      <circle cx="10" cy="10" r="4" fill="#111111" stroke="#000000" stroke-width="0.5"/>
      <circle cx="10" cy="10" r="2" fill="#000000"/>
      <!-- Lens reflection -->
      <circle cx="8.5" cy="8.5" r="0.8" fill="#444444"/>
      <!-- Mount screws -->
      <circle cx="3" cy="3" r="1" fill="#333333" stroke="#222222" stroke-width="0.3"/>
      <circle cx="17" cy="3" r="1" fill="#333333" stroke="#222222" stroke-width="0.3"/>
      <circle cx="3" cy="17" r="1" fill="#333333" stroke="#222222" stroke-width="0.3"/>
      <circle cx="17" cy="17" r="1" fill="#333333" stroke="#222222" stroke-width="0.3"/>
    </symbol>
    
    <!-- Breathing Filter -->
    <symbol id="breathingFilter" viewBox="0 0 30 30">
      <circle cx="15" cy="15" r="15" fill="url(#darkMetalGradient)" stroke="#111111" stroke-width="0.8"/>
      <!-- External rim -->
      <circle cx="15" cy="15" r="13" fill="none" stroke="#222222" stroke-width="1"/>
      <!-- Filter pattern -->
      <g stroke="#333333" stroke-width="0.5">
        <line x1="9" y1="9" x2="21" y2="21"/>
        <line x1="9" y1="21" x2="21" y2="9"/>
        <line x1="9" y1="15" x2="21" y2="15"/>
        <line x1="15" y1="9" x2="15" y2="21"/>
      </g>
      <!-- Center aperture -->
      <circle cx="15" cy="15" r="5" fill="#111111" stroke="#000000" stroke-width="0.8"/>
      <circle cx="15" cy="15" r="2" fill="#000000"/>
      <!-- Mounting bolts -->
      <circle cx="9" cy="9" r="1.2" fill="#333333" stroke="#222222" stroke-width="0.3"/>
      <circle cx="21" cy="9" r="1.2" fill="#333333" stroke="#222222" stroke-width="0.3"/>
      <circle cx="9" cy="21" r="1.2" fill="#333333" stroke="#222222" stroke-width="0.3"/>
      <circle cx="21" cy="21" r="1.2" fill="#333333" stroke="#222222" stroke-width="0.3"/>
    </symbol>
  </defs>
  
  <!-- Main Group, centered -->
  <g transform="translate(150, 150)">
    <!-- Background Metal Plate -->
    <circle cx="0" cy="0" r="145" fill="url(#darkMetalGradient)" filter="url(#metalnoise)"/>
    
    <!-- Main Helmet Body -->
    <circle cx="0" cy="0" r="140" fill="url(#metalGradient)" stroke="#222222" stroke-width="2" filter="url(#metalnoise)"/>
    
    <!-- Battle Damage - Scratches and Dents -->
    <g filter="url(#scratchesDamage)">
      <path d="M -80,-40 L -60,-30" stroke="#222222" stroke-width="0.8" fill="none"/>
      <path d="M 80,60 L 40,40" stroke="#222222" stroke-width="1" fill="none"/>
      <path d="M -30,90 L -10,60" stroke="#222222" stroke-width="0.8" fill="none"/>
      <path d="M 70,-70 C 60,-60 50,-65 40,-50" stroke="#222222" stroke-width="0.6" fill="none"/>
      <!-- Deep scratch/gouge -->
      <path d="M -90,10 C -70,15 -60,5 -40,5" stroke="#333333" stroke-width="1.2" fill="none"/>
      <!-- Bullet impact dent -->
      <circle cx="50" cy="-80" r="8" fill="url(#darkMetalGradient)" stroke="#222222" stroke-width="1"/>
      <path d="M 46,-84 L 54,-76 M 46,-76 L 54,-84" stroke="#111111" stroke-width="0.5" fill="none"/>
    </g>
    
    <!-- Spikes around Rim - 16 evenly distributed (more detail than before) -->
    <g id="spikes">
      <use xlink:href="#spikeElement" x="-10" y="-155" width="20" height="30"/>
      <use xlink:href="#spikeElement" x="-10" y="-155" width="20" height="30" transform="rotate(22.5, 0, 0)"/>
      <use xlink:href="#spikeElement" x="-10" y="-155" width="20" height="30" transform="rotate(45, 0, 0)"/>
      <use xlink:href="#spikeElement" x="-10" y="-155" width="20" height="30" transform="rotate(67.5, 0, 0)"/>
      <use xlink:href="#spikeElement" x="-10" y="-155" width="20" height="30" transform="rotate(90, 0, 0)"/>
      <use xlink:href="#spikeElement" x="-10" y="-155" width="20" height="30" transform="rotate(112.5, 0, 0)"/>
      <use xlink:href="#spikeElement" x="-10" y="-155" width="20" height="30" transform="rotate(135, 0, 0)"/>
      <use xlink:href="#spikeElement" x="-10" y="-155" width="20" height="30" transform="rotate(157.5, 0, 0)"/>
      <use xlink:href="#spikeElement" x="-10" y="-155" width="20" height="30" transform="rotate(180, 0, 0)"/>
      <use xlink:href="#spikeElement" x="-10" y="-155" width="20" height="30" transform="rotate(202.5, 0, 0)"/>
      <use xlink:href="#spikeElement" x="-10" y="-155" width="20" height="30" transform="rotate(225, 0, 0)"/>
      <use xlink:href="#spikeElement" x="-10" y="-155" width="20" height="30" transform="rotate(247.5, 0, 0)"/>
      <use xlink:href="#spikeElement" x="-10" y="-155" width="20" height="30" transform="rotate(270, 0, 0)"/>
      <use xlink:href="#spikeElement" x="-10" y="-155" width="20" height="30" transform="rotate(292.5, 0, 0)"/>
      <use xlink:href="#spikeElement" x="-10" y="-155" width="20" height="30" transform="rotate(315, 0, 0)"/>
      <use xlink:href="#spikeElement" x="-10" y="-155" width="20" height="30" transform="rotate(337.5, 0, 0)"/>
    </g>
    
    <!-- Reinforcement Plate (Lower) -->
    <path d="M -70,20 
             C -65,50 -50,80 0,90 
             C 50,80 65,50 70,20 
             C 65,30 50,55 0,65 
             C -50,55 -65,30 -70,20 Z" 
          fill="url(#metalHighlight)" 
          stroke="#333333" 
          stroke-width="0.8" 
          filter="url(#bevelEffect)"/>
    
    <!-- Face Mask with Advanced Styling -->
    <path d="M -60,-30 
             C -60,20 -40,60 0,70 
             C 40,60 60,20 60,-30 
             C 55,0 40,30 0,40 
             C -40,30 -55,0 -60,-30 Z" 
          fill="url(#metalGradient)" 
          stroke="#333333" 
          stroke-width="1.5" 
          filter="url(#innerShadow)"/>
    
    <!-- Mask Structural Reinforcements (Ridges) -->
    <path d="M -50,-25 
             C -45,10 -30,35 0,45 
             C 30,35 45,10 50,-25" 
          fill="none" 
          stroke="#222222" 
          stroke-width="1" 
          stroke-opacity="0.7"/>
    
    <path d="M -40,-20 
             C -35,5 -25,25 0,35 
             C 25,25 35,5 40,-20" 
          fill="none" 
          stroke="#222222" 
          stroke-width="0.8" 
          stroke-opacity="0.7"/>
    
    <!-- Helmet Top Attachment -->
    <rect x="-20" y="-115" width="40" height="30" rx="5" fill="url(#metalHighlight)" stroke="#333333" stroke-width="1" filter="url(#bevelEffect)"/>
    
    <!-- Top Mount Camera/Sensor -->
    <use xlink:href="#cameraSensor" x="-10" y="-105" width="20" height="20"/>
    
    <!-- Helmet Top Mount -->
    <rect x="-15" y="-135" width="30" height="20" rx="3" fill="url(#metalHighlight)" stroke="#333333" stroke-width="1" filter="url(#bevelEffect)"/>
    
    <!-- Mounting bolts/rivets -->
    <circle cx="-12" cy="-125" r="2" fill="#333333" stroke="#222222" stroke-width="0.5"/>
    <circle cx="12" cy="-125" r="2" fill="#333333" stroke="#222222" stroke-width="0.5"/>
    <circle cx="-17" cy="-100" r="2" fill="#333333" stroke="#222222" stroke-width="0.5"/>
    <circle cx="17" cy="-100" r="2" fill="#333333" stroke="#222222" stroke-width="0.5"/>
    
    <!-- Visor (Eyes) with Glow Effect -->
    <path d="M -45,-30 
             C -45,-15 -30,0 0,5 
             C 30,0 45,-15 45,-30 
             C 40,-10 30,0 0,-5 
             C -30,0 -40,-10 -45,-30 Z" 
          fill="url(#visorGlowGradient)" 
          stroke="#408860" 
          stroke-width="1.5" 
          filter="url(#emeraldGlow)"/>
    
    <!-- Visor Reflection Highlight -->
    <path d="M -35,-28 
             C -35,-20 -25,-10 -15,-8 
             C -5,-6 5,-6 15,-8 
             C 25,-10 35,-20 35,-28" 
          fill="none" 
          stroke="url(#visorReflection)" 
          stroke-width="5" 
          stroke-opacity="0.4"/>
    
    <!-- Side Light Arrays with Glow Effects -->
    <g id="left-lights">
      <rect x="-70" y="-40" width="10" height="25" rx="3" fill="#333333" stroke="#222222" stroke-width="1"/>
      <rect x="-67" y="-37" width="4" height="7" rx="1" fill="url(#visorGlowGradient)" filter="url(#emeraldGlow)"/>
      <rect x="-67" y="-27" width="4" height="7" rx="1" fill="url(#visorGlowGradient)" filter="url(#emeraldGlow)"/>
    </g>
    
    <g id="right-lights">
      <rect x="60" y="-40" width="10" height="25" rx="3" fill="#333333" stroke="#222222" stroke-width="1"/>
      <rect x="63" y="-37" width="4" height="7" rx="1" fill="url(#visorGlowGradient)" filter="url(#emeraldGlow)"/>
      <rect x="63" y="-27" width="4" height="7" rx="1" fill="url(#visorGlowGradient)" filter="url(#emeraldGlow)"/>
    </g>
    
    <!-- Breathing Filters with Detailed Components -->
    <use xlink:href="#breathingFilter" x="-40" y="30" width="30" height="30"/>
    <use xlink:href="#breathingFilter" x="10" y="30" width="30" height="30"/>
    
    <!-- Additional Helmet Details - Wiring and Connectors -->
    <path d="M -60,-35 C -65,-40 -67,-45 -67,-50 C -67,-55 -65,-60 -60,-65" 
          fill="none" stroke="#222222" stroke-width="1.5" stroke-linecap="round"/>
    <path d="M 60,-35 C 65,-40 67,-45 67,-50 C 67,-55 65,-60 60,-65" 
          fill="none" stroke="#222222" stroke-width="1.5" stroke-linecap="round"/>
    
    <!-- Connector Ports -->
    <rect x="-65" y="-70" width="10" height="8" rx="2" fill="#222222" stroke="#111111" stroke-width="0.5"/>
    <rect x="55" y="-70" width="10" height="8" rx="2" fill="#222222" stroke="#111111" stroke-width="0.5"/>
    
    <!-- Battle Damage - Bullet/Shrapnel Impacts -->
    <g>
      <!-- Large impact crater -->
      <circle cx="-85" cy="-40" r="10" fill="url(#darkMetalGradient)" stroke="#222222" stroke-width="1.5"/>
      <path d="M -90,-45 L -80,-35 M -90,-35 L -80,-45" stroke="#111111" stroke-width="0.7" fill="none"/>
      <!-- Smaller impact -->
      <circle cx="75" cy="30" r="5" fill="url(#darkMetalGradient)" stroke="#222222" stroke-width="1"/>
      <path d="M 72,27 L 78,33 M 72,33 L 78,27" stroke="#111111" stroke-width="0.5" fill="none"/>
    </g>
    
    <!-- Metal Seams and Weld Lines -->
    <path d="M -10,-85 C -5,-87 5,-87 10,-85" fill="none" stroke="#444444" stroke-width="1.5" stroke-opacity="0.8"/>
    <path d="M -10,-70 L 10,-70" fill="none" stroke="#444444" stroke-width="1" stroke-opacity="0.7"/>
    
    <!-- Identifier Tags/Serial Numbers -->
    <g transform="translate(-90, -90) scale(0.7)">
      <rect x="0" y="0" width="40" height="15" rx="2" fill="#333333" stroke="#222222" stroke-width="0.5"/>
      <text x="20" y="10" font-family="monospace" font-size="8" fill="#BBBBBB" text-anchor="middle" dominant-baseline="middle">TD-137</text>
    </g>
    
    <!-- Detail engraving on lower mask -->
    <path d="M -25,55 L 25,55" stroke="#444444" stroke-width="0.5" stroke-opacity="0.7"/>
    <path d="M -20,50 L 20,50" stroke="#444444" stroke-width="0.5" stroke-opacity="0.7"/>
  </g>
</svg>