<?xml version="1.0" encoding="UTF-8" standalone="no"?>
<svg width="100" height="100" viewBox="0 0 100 100" xmlns="http://www.w3.org/2000/svg">
  <style>
    .rifle-metal {
      fill: #444;
      stroke: #222;
      stroke-width: 1;
    }
    .rifle-wood {
      fill: #8B4513; /* Wooden stock */
      stroke: #5A2A0D;
      stroke-width: 0.7;
    }
    .rifle-detail {
      fill: #333;
    }
    .highlight {
      fill: #888;
      opacity: 0.6;
    }
    .deadside-accent {
      fill: #50C878; /* Emerald accent */
      opacity: 0.8;
    }
  </style>
  
  <!-- Background glow for Deadside theme -->
  <circle cx="50" cy="50" r="47" fill="#2F4F4F" opacity="0.2" />
  
  <!-- Assault Rifle - positioned horizontally -->
  <g transform="translate(50, 50) rotate(0) scale(0.85)">
    <!-- Barrel -->
    <rect x="25" y="-5" width="40" height="10" rx="2" ry="2" class="rifle-metal" />
    
    <!-- Front grip/handguard -->
    <rect x="10" y="-7" width="20" height="14" rx="2" ry="2" class="rifle-metal" />
    <path d="M 12,-7 L 12,7 M 17,-7 L 17,7 M 22,-7 L 22,7 M 27,-7 L 27,7" stroke="#333" stroke-width="0.7" fill="none" />
    
    <!-- Receiver -->
    <rect x="-15" y="-9" width="30" height="18" rx="2" ry="2" class="rifle-metal" />
    
    <!-- Magazine -->
    <path d="M -7,9 C -7,13 -7,25 -7,25 C -7,25 -3,27 0,27 C 3,27 7,25 7,25 C 7,25 7,13 7,9 Z" class="rifle-metal" />
    <rect x="-5" y="15" width="10" height="10" rx="1" ry="1" class="highlight" opacity="0.3" />
    
    <!-- Stock -->
    <path d="M -15,0 L -45,0 L -50,5 L -50,15 C -50,15 -45,20 -40,20 C -35,20 -30,15 -25,15 L -15,10 Z" class="rifle-wood" />
    <path d="M -45,5 L -40,5 M -45,10 L -35,10 M -40,15 L -35,15" stroke="#5A2A0D" stroke-width="0.5" fill="none" />
    
    <!-- Grip -->
    <path d="M -5,9 L -5,20 A 2 2 0 0 0 -3,22 L 3,22 A 2 2 0 0 0 5,20 L 5,9" class="rifle-wood" />
    
    <!-- Ejection port -->
    <rect x="-5" y="-9" width="12" height="5" rx="1" ry="1" fill="#222" />
    
    <!-- Sights -->
    <rect x="55" y="-7" width="2" height="6" rx="1" ry="1" class="rifle-detail" />
    <rect x="5" y="-11" width="6" height="2" rx="1" ry="1" class="rifle-detail" />
    
    <!-- Muzzle break -->
    <path d="M 65,-5 C 68,-5 68,-5 68,-2 L 68,2 C 68,5 68,5 65,5 Z" class="rifle-detail" />
    <rect x="65" y="-3" width="4" height="6" class="rifle-detail" />
    
    <!-- Emerald accent (tactical light) -->
    <circle cx="20" cy="-10" r="3" class="deadside-accent" />
    <path d="M 20,-13 L 20,-18" stroke="#50C878" stroke-width="1" />
    
    <!-- Sling mount -->
    <path d="M -15,-5 A 2 2 0 0 0 -17,-7 L -20,-7 L -20,-10 L -17,-10 A 2 2 0 0 0 -15,-12" stroke="#222" stroke-width="1" fill="none" />
  </g>
</svg>